<?xml version="1.0" standalone="no"?>
<!DOCTYPE svg PUBLIC "-//W3C//DTD SVG 20010904//EN"
 "http://www.w3.org/TR/2001/REC-SVG-20010904/DTD/svg10.dtd">
<svg version="1.0" xmlns="http://www.w3.org/2000/svg"
 width="1200.000000pt" height="1200.000000pt" viewBox="0 0 1200.000000 1200.000000"
 preserveAspectRatio="xMidYMid meet">

<g transform="translate(0.000000,1200.000000) scale(0.100000,-0.100000)"
fill="#ffffff" stroke="none">
<path d="M4851 8626 c-48 -17 -108 -71 -133 -119 -31 -58 -31 -156 -1 -212 13
-24 499 -517 1202 -1220 l1181 -1180 -1189 -1190 c-1136 -1138 -1189 -1192
-1206 -1244 -38 -118 13 -239 125 -297 51 -26 153 -25 205 3 24 13 558 540
1322 1305 1003 1003 1287 1293 1302 1328 25 55 26 110 5 176 -15 45 -119 152
-1308 1340 -1188 1189 -1295 1293 -1340 1308 -58 19 -117 20 -165 2z"/>
</g>
</svg>
